<?xml version="1.0" encoding="utf-8"?>
<!-- Generator: Adobe Illustrator 15.1.0, SVG Export Plug-In . SVG Version: 6.00 Build 0)  -->
<!DOCTYPE svg PUBLIC "-//W3C//DTD SVG 1.1//EN" "http://www.w3.org/Graphics/SVG/1.1/DTD/svg11.dtd">
<svg version="1.1" id="Layer_1" xmlns="http://www.w3.org/2000/svg" xmlns:xlink="http://www.w3.org/1999/xlink" x="0px" y="0px"
	 width="164.391px" height="109.547px" viewBox="0 0 164.391 109.547" enable-background="new 0 0 164.391 109.547"
	 xml:space="preserve">
<g>
	<path fill="#087A93" stroke="#010101" stroke-miterlimit="10" d="M148.167,12.551c8.56,21.704-3.547,84.42-49.044,93.942
		C50.165,116.76,9.188,92.759,9.188,92.759L47.279,70.07c6.198,10.262,25.621,18.088,41.325,15.4
		c14.076-2.404,24.232-10.353,29.592-25.302c3.926-10.947,3.261-21.396-0.264-30.308l46.21-26.517"/>
	<path fill="#68C6D9" stroke="#010101" stroke-miterlimit="10" d="M18.681,78.917c-5.511-17.968,8.144-53.338,30.107-67.182
		c34.938-22.044,69.243-6.208,84.366,1.686l-19.98,11.518c-7.25-9.394-23.313-16.661-38.489-14.986
		c-15.717,1.738-23.916,9.036-31.066,21.195c-7.486,12.742-4.124,25.239-0.326,33.021L0.255,89.764"/>
	<path fill="#CC6429" stroke="#010101" stroke-miterlimit="10" d="M54.604,32.766c7.593-14.568,25.444-20.274,39.876-12.742
		c14.431,7.523,19.972,25.431,12.377,40.001C99.261,74.584,81.4,80.291,66.972,72.766C52.543,65.236,47.005,47.325,54.604,32.766z"
		/>
</g>
</svg>
